TITLE ""
FILE "Disc3Track04.mp3" MP3
  TRACK 01 AUDIO
    TITLE "Disc3Track04_01"
    INDEX 01 00:00:00
  TRACK 02 AUDIO
    TITLE "Disc3Track04_02"
    INDEX 01 00:01:27
  TRACK 03 AUDIO
    TITLE "Disc3Track04_03"
    INDEX 01 00:04:30
  TRACK 04 AUDIO
    TITLE "Disc3Track04_04"
    INDEX 01 00:05:66
  TRACK 05 AUDIO
    TITLE "Disc3Track04_05"
    INDEX 01 00:10:71
  TRACK 06 AUDIO
    TITLE "Disc3Track04_06"
    INDEX 01 00:11:28
  TRACK 07 AUDIO
    TITLE "Disc3Track04_07"
    INDEX 01 00:13:13
  TRACK 08 AUDIO
    TITLE "Disc3Track04_08"
    INDEX 01 00:14:32
  TRACK 09 AUDIO
    TITLE "Disc3Track04_09"
    INDEX 01 00:16:17
  TRACK 10 AUDIO
    TITLE "Disc3Track04_10"
    INDEX 01 00:19:43
  TRACK 11 AUDIO
    TITLE "Disc3Track04_11"
    INDEX 01 00:20:03
  TRACK 12 AUDIO
    TITLE "Disc3Track04_12"
    INDEX 01 00:21:59
  TRACK 13 AUDIO
    TITLE "Disc3Track04_13"
    INDEX 01 00:23:60
  TRACK 14 AUDIO
    TITLE "Disc3Track04_14"
    INDEX 01 00:25:42
  TRACK 15 AUDIO
    TITLE "Disc3Track04_15"
    INDEX 01 00:25:73
  TRACK 16 AUDIO
    TITLE "Disc3Track04_16"
    INDEX 01 00:27:52
  TRACK 17 AUDIO
    TITLE "Disc3Track04_17"
    INDEX 01 00:28:65
  TRACK 18 AUDIO
    TITLE "Disc3Track04_18"
    INDEX 01 00:30:47
  TRACK 19 AUDIO
    TITLE "Disc3Track04_19"
    INDEX 01 00:31:01
  TRACK 20 AUDIO
    TITLE "Disc3Track04_20"
    INDEX 01 00:32:16
  TRACK 21 AUDIO
    TITLE "Disc3Track04_21"
    INDEX 01 00:33:12
  TRACK 22 AUDIO
    TITLE "Disc3Track04_22"
    INDEX 01 00:34:25
  TRACK 23 AUDIO
    TITLE "Disc3Track04_23"
    INDEX 01 00:36:53
  TRACK 24 AUDIO
    TITLE "Disc3Track04_24"
    INDEX 01 00:37:09
  TRACK 25 AUDIO
    TITLE "Disc3Track04_25"
    INDEX 01 00:38:38
  TRACK 26 AUDIO
    TITLE "Disc3Track04_26"
    INDEX 01 00:39:44
  TRACK 27 AUDIO
    TITLE "Disc3Track04_27"
    INDEX 01 00:40:73
  TRACK 28 AUDIO
    TITLE "Disc3Track04_28"
    INDEX 01 00:45:72
  TRACK 29 AUDIO
    TITLE "Disc3Track04_29"
    INDEX 01 00:46:28
  TRACK 30 AUDIO
    TITLE "Disc3Track04_30"
    INDEX 01 00:47:57
  TRACK 31 AUDIO
    TITLE "Disc3Track04_31"
    INDEX 01 00:50:18
  TRACK 32 AUDIO
    TITLE "Disc3Track04_32"
    INDEX 01 00:51:41
  TRACK 33 AUDIO
    TITLE "Disc3Track04_33"
    INDEX 01 00:55:41
  TRACK 34 AUDIO
    TITLE "Disc3Track04_34"
    INDEX 01 00:55:64
  TRACK 35 AUDIO
    TITLE "Disc3Track04_35"
    INDEX 01 00:57:26
  TRACK 36 AUDIO
    TITLE "Disc3Track04_36"
    INDEX 01 00:59:03
  TRACK 37 AUDIO
    TITLE "Disc3Track04_37"
    INDEX 01 01:00:40
  TRACK 38 AUDIO
    TITLE "Disc3Track04_38"
    INDEX 01 01:05:27
  TRACK 39 AUDIO
    TITLE "Disc3Track04_39"
    INDEX 01 01:05:61
  TRACK 40 AUDIO
    TITLE "Disc3Track04_40"
    INDEX 01 01:07:44
  TRACK 41 AUDIO
    TITLE "Disc3Track04_41"
    INDEX 01 01:08:41
  TRACK 42 AUDIO
    TITLE "Disc3Track04_42"
    INDEX 01 01:10:25
